<svg width="24" height="30" viewBox="0 0 24 30" fill="none" xmlns="http://www.w3.org/2000/svg">
<path d="M6 21.75C5.70333 21.75 5.41332 21.838 5.16664 22.0028C4.91997 22.1676 4.72771 22.4019 4.61418 22.676C4.50065 22.9501 4.47094 23.2517 4.52882 23.5426C4.5867 23.8336 4.72956 24.1009 4.93934 24.3107C5.14912 24.5204 5.41639 24.6633 5.70736 24.7212C5.99833 24.7791 6.29993 24.7494 6.57402 24.6358C6.84811 24.5223 7.08238 24.33 7.2472 24.0834C7.41202 23.8367 7.5 23.5467 7.5 23.25C7.5 22.8522 7.34196 22.4706 7.06066 22.1893C6.77935 21.908 6.39782 21.75 6 21.75ZM12 0C6 0 0 2.055 0 6V24C0 27.945 6 30 12 30C18 30 24 27.945 24 24V6C24 2.055 18 0 12 0ZM21 24C21 25.065 17.58 27 12 27C6.42 27 3 25.065 3 24V19.095C5.8081 20.4299 8.89184 21.0827 12 21C15.1082 21.0827 18.1919 20.4299 21 19.095V24ZM21 15C21 16.065 17.58 18 12 18C6.42 18 3 16.065 3 15V10.095C5.8081 11.4299 8.89184 12.0827 12 12C15.1082 12.0827 18.1919 11.4299 21 10.095V15ZM12 9C6.42 9 3 7.065 3 6C3 4.935 6.42 3 12 3C17.58 3 21 4.935 21 6C21 7.065 17.58 9 12 9ZM6 12.75C5.70333 12.75 5.41332 12.838 5.16664 13.0028C4.91997 13.1676 4.72771 13.4019 4.61418 13.676C4.50065 13.9501 4.47094 14.2517 4.52882 14.5426C4.5867 14.8336 4.72956 15.1009 4.93934 15.3107C5.14912 15.5204 5.41639 15.6633 5.70736 15.7212C5.99833 15.7791 6.29993 15.7494 6.57402 15.6358C6.84811 15.5223 7.08238 15.33 7.2472 15.0834C7.41202 14.8367 7.5 14.5467 7.5 14.25C7.5 13.8522 7.34196 13.4706 7.06066 13.1893C6.77935 12.908 6.39782 12.75 6 12.75Z" fill="#00BF2D"/>
</svg>
