<svg width="169" height="24" viewBox="0 0 169 24" fill="none" xmlns="http://www.w3.org/2000/svg">
<path d="M2.8 23.288C1.98933 23.288 1.36 23.064 0.912 22.616C0.485333 22.168 0.272 21.5173 0.272 20.664V3.032C0.272 2.2 0.496 1.56 0.944 1.112C1.392 0.663999 2.032 0.439999 2.864 0.439999H13.808C14.448 0.439999 14.928 0.610666 15.248 0.952C15.5893 1.272 15.76 1.74133 15.76 2.36C15.76 3 15.5893 3.49067 15.248 3.832C14.928 4.152 14.448 4.312 13.808 4.312H5.232V9.816H13.104C13.744 9.816 14.2347 9.98667 14.576 10.328C14.9173 10.648 15.088 11.1173 15.088 11.736C15.088 12.3547 14.9173 12.8347 14.576 13.176C14.2347 13.5173 13.744 13.688 13.104 13.688H5.232V20.664C5.232 22.4133 4.42133 23.288 2.8 23.288ZM26.0548 23.352C24.1988 23.352 22.5987 23.0213 21.2547 22.36C19.9321 21.6773 18.9081 20.728 18.1827 19.512C17.4787 18.2747 17.1267 16.824 17.1267 15.16C17.1267 13.5387 17.4681 12.12 18.1507 10.904C18.8334 9.66667 19.7827 8.70667 20.9987 8.024C22.2361 7.32 23.6334 6.968 25.1908 6.968C26.3214 6.968 27.3454 7.16 28.2628 7.544C29.1801 7.90667 29.9694 8.44 30.6308 9.144C31.2921 9.82667 31.7934 10.6693 32.1348 11.672C32.4761 12.6533 32.6468 13.752 32.6468 14.968C32.6468 15.3733 32.5188 15.6827 32.2628 15.896C32.0068 16.088 31.6334 16.184 31.1428 16.184H21.0947V13.688H29.1588L28.6468 14.136C28.6468 13.2613 28.5188 12.536 28.2628 11.96C28.0068 11.3627 27.6334 10.9147 27.1427 10.616C26.6734 10.3173 26.0868 10.168 25.3828 10.168C24.5934 10.168 23.9214 10.3493 23.3668 10.712C22.8121 11.0747 22.3854 11.5973 22.0868 12.28C21.7881 12.9627 21.6388 13.784 21.6388 14.744V15C21.6388 16.6213 22.0121 17.816 22.7587 18.584C23.5267 19.352 24.6574 19.736 26.1508 19.736C26.6627 19.736 27.2494 19.672 27.9108 19.544C28.5721 19.416 29.1908 19.2133 29.7668 18.936C30.2574 18.7013 30.6948 18.6267 31.0788 18.712C31.4628 18.776 31.7614 18.9467 31.9748 19.224C32.1881 19.5013 32.3054 19.8213 32.3267 20.184C32.3694 20.5467 32.2948 20.9093 32.1028 21.272C31.9108 21.6133 31.5908 21.9013 31.1428 22.136C30.4174 22.5413 29.5961 22.84 28.6788 23.032C27.7828 23.2453 26.9081 23.352 26.0548 23.352ZM43.4253 23.352C41.7186 23.352 40.2252 23.0213 38.9452 22.36C37.6866 21.6773 36.7159 20.7173 36.0332 19.48C35.3506 18.2427 35.0092 16.7813 35.0092 15.096C35.0092 13.8373 35.2012 12.7067 35.5852 11.704C35.9692 10.7013 36.5239 9.848 37.2492 9.144C37.9959 8.44 38.8919 7.90667 39.9372 7.544C40.9826 7.16 42.1453 6.968 43.4253 6.968C44.0866 6.968 44.7906 7.05333 45.5372 7.224C46.2839 7.37333 47.0199 7.64 47.7452 8.024C48.1719 8.216 48.4599 8.49333 48.6093 8.856C48.7799 9.19733 48.8439 9.56 48.8013 9.944C48.7586 10.3067 48.6199 10.6373 48.3853 10.936C48.1719 11.2133 47.8946 11.4053 47.5533 11.512C47.2119 11.5973 46.8279 11.5333 46.4012 11.32C45.9959 11.0853 45.5693 10.9147 45.1213 10.808C44.6946 10.7013 44.2892 10.648 43.9052 10.648C43.2652 10.648 42.6999 10.7547 42.2092 10.968C41.7186 11.16 41.3026 11.448 40.9612 11.832C40.6412 12.1947 40.3852 12.6533 40.1932 13.208C40.0226 13.7627 39.9372 14.4027 39.9372 15.128C39.9372 16.536 40.2786 17.6453 40.9612 18.456C41.6652 19.2453 42.6466 19.64 43.9052 19.64C44.2892 19.64 44.6946 19.5973 45.1213 19.512C45.5479 19.4053 45.9746 19.2347 46.4012 19C46.8279 18.7867 47.2119 18.7333 47.5533 18.84C47.8946 18.9467 48.1613 19.1493 48.3533 19.448C48.5666 19.7253 48.6839 20.056 48.7052 20.44C48.7479 20.8027 48.6839 21.1653 48.5133 21.528C48.3639 21.8693 48.0866 22.136 47.6812 22.328C46.9559 22.6907 46.2306 22.9467 45.5052 23.096C44.7799 23.2667 44.0866 23.352 43.4253 23.352ZM59.1842 23.352C57.7122 23.352 56.4749 23.1067 55.4722 22.616C54.4909 22.1253 53.7549 21.4107 53.2642 20.472C52.7949 19.5333 52.5602 18.3493 52.5602 16.92V10.904H51.2162C50.6189 10.904 50.1496 10.744 49.8082 10.424C49.4882 10.104 49.3282 9.66667 49.3282 9.112C49.3282 8.51467 49.4882 8.06667 49.8082 7.768C50.1496 7.448 50.6189 7.288 51.2162 7.288H52.5602V4.856C52.5602 4.04533 52.7736 3.43733 53.2002 3.032C53.6269 2.60533 54.2242 2.392 54.9922 2.392C55.7816 2.392 56.3789 2.60533 56.7842 3.032C57.1896 3.43733 57.3922 4.04533 57.3922 4.856V7.288H60.4323C61.0296 7.288 61.4882 7.448 61.8082 7.768C62.1282 8.06667 62.2882 8.51467 62.2882 9.112C62.2882 9.66667 62.1282 10.104 61.8082 10.424C61.4882 10.744 61.0296 10.904 60.4323 10.904H57.3922V16.728C57.3922 17.624 57.5949 18.296 58.0002 18.744C58.4269 19.192 59.0989 19.416 60.0162 19.416C60.3362 19.416 60.6349 19.384 60.9122 19.32C61.1896 19.256 61.4456 19.2133 61.6802 19.192C61.9789 19.1707 62.2242 19.2667 62.4162 19.48C62.6082 19.672 62.7042 20.1093 62.7042 20.792C62.7042 21.304 62.6189 21.752 62.4482 22.136C62.2776 22.52 61.9789 22.7973 61.5522 22.968C61.2749 23.0747 60.8909 23.16 60.4002 23.224C59.9309 23.3093 59.5256 23.352 59.1842 23.352ZM67.6617 23.288C66.8724 23.288 66.2644 23.0747 65.8377 22.648C65.4324 22.2213 65.2297 21.6133 65.2297 20.824V2.616C65.2297 1.80533 65.4324 1.19733 65.8377 0.792C66.2644 0.365332 66.8724 0.151999 67.6617 0.151999C68.4297 0.151999 69.0164 0.365332 69.4217 0.792C69.8484 1.19733 70.0617 1.80533 70.0617 2.616V10.232H69.6137C70.1044 9.18667 70.8297 8.38667 71.7897 7.832C72.7711 7.256 73.8804 6.968 75.1177 6.968C76.3764 6.968 77.4111 7.21333 78.2217 7.704C79.0324 8.17333 79.6404 8.89867 80.0457 9.88C80.4511 10.84 80.6537 12.0667 80.6537 13.56V20.824C80.6537 21.6133 80.4404 22.2213 80.0138 22.648C79.6084 23.0747 79.0111 23.288 78.2217 23.288C77.4537 23.288 76.8564 23.0747 76.4297 22.648C76.0244 22.2213 75.8217 21.6133 75.8217 20.824V13.784C75.8217 12.696 75.6191 11.9173 75.2137 11.448C74.8297 10.9573 74.2324 10.712 73.4217 10.712C72.3977 10.712 71.5764 11.032 70.9577 11.672C70.3604 12.312 70.0617 13.1653 70.0617 14.232V20.824C70.0617 22.4667 69.2617 23.288 67.6617 23.288ZM128.297 23.352C126.611 23.352 125.139 23.0213 123.881 22.36C122.643 21.6987 121.683 20.7493 121.001 19.512C120.318 18.2747 119.977 16.8133 119.977 15.128C119.977 13.8693 120.169 12.7387 120.553 11.736C120.937 10.7333 121.491 9.88 122.217 9.176C122.963 8.45067 123.849 7.90667 124.873 7.544C125.897 7.16 127.038 6.968 128.297 6.968C129.982 6.968 131.443 7.29867 132.681 7.96C133.939 8.62133 134.91 9.56 135.593 10.776C136.297 11.992 136.649 13.4427 136.649 15.128C136.649 16.408 136.446 17.5493 136.041 18.552C135.657 19.5547 135.102 20.4187 134.377 21.144C133.651 21.8693 132.766 22.424 131.721 22.808C130.697 23.1707 129.555 23.352 128.297 23.352ZM128.297 19.736C129.001 19.736 129.609 19.5653 130.121 19.224C130.633 18.8827 131.038 18.3813 131.337 17.72C131.635 17.0373 131.785 16.1733 131.785 15.128C131.785 13.5707 131.465 12.4293 130.825 11.704C130.185 10.9573 129.342 10.584 128.297 10.584C127.614 10.584 127.006 10.744 126.473 11.064C125.961 11.384 125.555 11.8853 125.257 12.568C124.979 13.2293 124.841 14.0827 124.841 15.128C124.841 16.6853 125.161 17.848 125.801 18.616C126.441 19.3627 127.273 19.736 128.297 19.736ZM142.405 23.288C141.594 23.288 140.975 23.0747 140.549 22.648C140.122 22.2213 139.909 21.6133 139.909 20.824V9.464C139.909 8.67467 140.111 8.07733 140.517 7.672C140.943 7.24533 141.53 7.032 142.277 7.032C143.045 7.032 143.631 7.24533 144.037 7.672C144.442 8.07733 144.645 8.67467 144.645 9.464V11.128H144.325C144.581 9.848 145.146 8.856 146.021 8.152C146.895 7.448 148.026 7.05333 149.413 6.968C149.946 6.92533 150.351 7.064 150.629 7.384C150.927 7.68267 151.087 8.184 151.109 8.888C151.151 9.54933 151.013 10.072 150.693 10.456C150.394 10.84 149.882 11.0747 149.157 11.16L148.421 11.224C147.205 11.3307 146.298 11.6827 145.701 12.28C145.125 12.8773 144.837 13.7413 144.837 14.872V20.824C144.837 21.6133 144.623 22.2213 144.197 22.648C143.791 23.0747 143.194 23.288 142.405 23.288ZM155.848 23.288C155.059 23.288 154.451 23.0747 154.024 22.648C153.619 22.2213 153.416 21.6133 153.416 20.824V2.616C153.416 1.80533 153.619 1.19733 154.024 0.792C154.451 0.365332 155.059 0.151999 155.848 0.151999C156.616 0.151999 157.203 0.365332 157.608 0.792C158.035 1.19733 158.248 1.80533 158.248 2.616V13.784H158.312L162.952 8.632C163.421 8.09867 163.848 7.704 164.232 7.448C164.637 7.17067 165.171 7.032 165.832 7.032C166.493 7.032 166.995 7.20267 167.336 7.544C167.699 7.88533 167.88 8.30133 167.88 8.792C167.901 9.26133 167.699 9.74133 167.272 10.232L162.376 15.704V13.88L167.816 20.152C168.221 20.6427 168.392 21.1333 168.328 21.624C168.285 22.1147 168.072 22.52 167.688 22.84C167.304 23.1387 166.813 23.288 166.216 23.288C165.491 23.288 164.904 23.1493 164.456 22.872C164.029 22.5947 163.592 22.168 163.144 21.592L158.312 16.216H158.248V20.824C158.248 22.4667 157.448 23.288 155.848 23.288Z" fill="black"/>
<path d="M93.349 23.288C92.6663 23.288 92.1117 23.128 91.685 22.808C91.2583 22.4667 90.917 21.9547 90.661 21.272L84.197 3.096C83.9197 2.28533 83.973 1.592 84.357 1.016C84.7623 0.439999 85.4557 0.151999 86.437 0.151999C87.1197 0.151999 87.6423 0.311998 88.005 0.631998C88.389 0.951999 88.6983 1.45333 88.933 2.136L94.213 17.848H92.837L98.405 2.168C98.661 1.48533 98.9703 0.983999 99.333 0.664C99.717 0.322666 100.218 0.151999 100.837 0.151999C101.434 0.151999 101.914 0.322666 102.277 0.664C102.64 0.983999 102.949 1.496 103.205 2.2L108.517 17.848H107.333L112.709 2.136C112.922 1.47467 113.221 0.983999 113.605 0.664C113.989 0.322666 114.512 0.151999 115.173 0.151999C116.005 0.151999 116.613 0.439999 116.997 1.016C117.381 1.592 117.424 2.28533 117.125 3.096L110.597 21.304C110.362 21.9653 110.042 22.4667 109.637 22.808C109.232 23.128 108.677 23.288 107.973 23.288C107.29 23.288 106.746 23.128 106.341 22.808C105.936 22.4667 105.605 21.9547 105.349 21.272L100.293 6.968H101.061L95.941 21.304C95.685 21.9653 95.3543 22.4667 94.949 22.808C94.565 23.128 94.0317 23.288 93.349 23.288Z" fill="#00BF2C"/>
</svg>
