<svg width="33" height="33" viewBox="0 0 33 33" fill="none" xmlns="http://www.w3.org/2000/svg">
<path d="M27.875 0.25H5.125C3.83207 0.25 2.5921 0.763615 1.67786 1.67786C0.763615 2.5921 0.25 3.83207 0.25 5.125V27.875C0.25 29.1679 0.763615 30.4079 1.67786 31.3222C2.5921 32.2364 3.83207 32.75 5.125 32.75H27.875C29.1679 32.75 30.4079 32.2364 31.3222 31.3222C32.2364 30.4079 32.75 29.1679 32.75 27.875V5.125C32.75 3.83207 32.2364 2.5921 31.3222 1.67786C30.4079 0.763615 29.1679 0.25 27.875 0.25ZM13.25 8.375C13.8928 8.375 14.5212 8.56561 15.0556 8.92273C15.5901 9.27984 16.0066 9.78743 16.2526 10.3813C16.4986 10.9751 16.563 11.6286 16.4376 12.2591C16.3122 12.8895 16.0026 13.4686 15.5481 13.9231C15.0936 14.3776 14.5145 14.6872 13.8841 14.8126C13.2536 14.938 12.6001 14.8736 12.0063 14.6276C11.4124 14.3816 10.9048 13.9651 10.5477 13.4306C10.1906 12.8962 10 12.2678 10 11.625C10 10.7631 10.3424 9.9364 10.9519 9.32691C11.5614 8.71741 12.3881 8.375 13.25 8.375ZM9.17126 29.5H5.125C4.78105 29.4941 4.44783 29.3793 4.17333 29.1719C3.89883 28.9646 3.69721 28.6755 3.5975 28.3463L8.61876 22.3175C8.78062 22.1365 8.97829 21.991 9.19926 21.8903C9.42023 21.7896 9.6597 21.7359 9.90251 21.7325C10.1493 21.7375 10.3917 21.7986 10.6113 21.9112C10.8309 22.0239 11.022 22.185 11.17 22.3825L12.795 24.5438L9.17126 29.5ZM29.5 27.875C29.5 28.306 29.3288 28.7193 29.0241 29.0241C28.7193 29.3288 28.306 29.5 27.875 29.5H13.25L22.1388 17.28C22.2766 17.0898 22.454 16.9318 22.6588 16.8168C22.8636 16.7017 23.0909 16.6325 23.325 16.6138C23.5604 16.5943 23.7972 16.6264 24.0189 16.7078C24.2406 16.7892 24.4419 16.9179 24.6088 17.085L29.5 22.0413V27.875Z" fill="#00BF2D"/>
</svg>
