<svg width="57" height="57" viewBox="0 0 57 57" fill="none" xmlns="http://www.w3.org/2000/svg">
<path d="M20.5028 31.1904C21.9784 31.1904 23.1747 29.9941 23.1747 28.5185C23.1747 27.0429 21.9784 25.8466 20.5028 25.8466C19.0272 25.8466 17.8309 27.0429 17.8309 28.5185C17.8309 29.9941 19.0272 31.1904 20.5028 31.1904Z" fill="#00BF2D"/>
<path d="M28.5184 31.1904C29.9941 31.1904 31.1903 29.9941 31.1903 28.5185C31.1903 27.0429 29.9941 25.8466 28.5184 25.8466C27.0428 25.8466 25.8466 27.0429 25.8466 28.5185C25.8466 29.9941 27.0428 31.1904 28.5184 31.1904Z" fill="#00BF2D"/>
<path d="M36.5341 31.1904C38.0097 31.1904 39.2059 29.9941 39.2059 28.5185C39.2059 27.0429 38.0097 25.8466 36.5341 25.8466C35.0584 25.8466 33.8622 27.0429 33.8622 28.5185C33.8622 29.9941 35.0584 31.1904 36.5341 31.1904Z" fill="#00BF2D"/>
<path d="M18.7031 43.6406C18.3521 43.6411 18.0046 43.5722 17.6803 43.4379C17.3561 43.3036 17.0616 43.1066 16.8137 42.8581L4.34499 30.3894C3.30151 29.3459 3.30151 27.6541 4.34499 26.6108L16.8137 14.142C17.8572 13.0987 19.5488 13.0987 20.5923 14.142C21.6356 15.1854 21.6356 16.8771 20.5923 17.9206L10.0129 28.5L20.5923 39.0794C21.6356 40.1228 21.6356 41.8145 20.5923 42.858C20.3445 43.1065 20.05 43.3035 19.7258 43.4378C19.4016 43.5721 19.054 43.6411 18.7031 43.6406ZM38.2968 43.6406C38.6478 43.6411 38.9953 43.5722 39.3196 43.4379C39.6438 43.3036 39.9383 43.1066 40.1862 42.8581L52.6549 30.3894C53.6984 29.3459 53.6984 27.6541 52.6549 26.6108L40.1862 14.142C39.1427 13.0987 37.4511 13.0987 36.4076 14.142C35.3643 15.1854 35.3643 16.8771 36.4076 17.9206L46.987 28.5L36.4076 39.0794C35.3643 40.1228 35.3643 41.8145 36.4076 42.858C36.6554 43.1065 36.9499 43.3035 37.2741 43.4378C37.5983 43.5721 37.9459 43.6411 38.2968 43.6406Z" fill="#00BF2C"/>
</svg>
